<svg width="22" height="23" viewBox="0 0 22 23" fill="none" xmlns="http://www.w3.org/2000/svg">
<path fill-rule="evenodd" clip-rule="evenodd" d="M11.0002 0C6.90405 0 3.5835 3.32056 3.5835 7.41667V8.33334C3.5835 10.5339 3.2847 12.4847 2.82936 13.8507C2.59994 14.539 2.34881 15.0238 2.11851 15.316C1.948 15.5324 1.84626 15.5761 1.82292 15.5834C1.27551 15.5891 0.833496 16.0346 0.833496 16.5833V16.7917C0.833496 17.344 1.28121 17.7917 1.8335 17.7917H20.1668C20.7191 17.7917 21.1668 17.344 21.1668 16.7917V16.5833C21.1668 16.0346 20.7248 15.5891 20.1774 15.5834C20.1541 15.5761 20.0523 15.5324 19.8818 15.316C19.6515 15.0238 19.4004 14.539 19.171 13.8507C18.7156 12.4847 18.4168 10.5339 18.4168 8.33334V7.41667C18.4168 3.32056 15.0963 0 11.0002 0ZM1.82044 15.5841L1.81774 15.5847L1.81886 15.5845L1.82044 15.5841ZM5.5835 7.41667C5.5835 4.42512 8.00862 2 11.0002 2C13.9917 2 16.4168 4.42512 16.4168 7.41667V8.33334C16.4168 10.6891 16.7336 12.8633 17.2736 14.4832C17.4305 14.9538 17.6124 15.3966 17.8219 15.7917H4.1784C4.38795 15.3966 4.56986 14.9538 4.72672 14.4832C5.26668 12.8633 5.5835 10.6891 5.5835 8.33334V7.41667Z" fill="white"/>
<path d="M9.0541 19.9054C8.72577 19.4613 8.09959 19.3675 7.65552 19.6959C7.21145 20.0242 7.11764 20.6504 7.446 21.0945C8.27811 22.2198 9.5352 22.9999 11.0001 22.9999C12.465 22.9999 13.722 22.2198 14.5541 21.0945C14.8825 20.6504 14.7887 20.0242 14.3446 19.6959C13.9005 19.3675 13.2744 19.4613 12.946 19.9054C12.4147 20.6239 11.7124 20.9999 11.0001 20.9999C10.2877 20.9999 9.5854 20.6239 9.0541 19.9054Z" fill="white"/>
</svg>
