<svg width="30" height="40" viewBox="0 0 30 40" fill="none" xmlns="http://www.w3.org/2000/svg">
<path d="M13.3097 2.95902L15 0.809009L16.6903 2.95902L16.6947 2.96462L16.6992 2.97009C16.937 3.25541 17.1321 3.59631 17.2811 3.99866C17.4263 4.39076 17.5 4.80675 17.5 5.25C17.5 5.95013 17.3608 6.52106 17.1046 6.98218C16.8328 7.47134 16.4443 7.93379 15.9284 8.36715L15.75 8.51701V8.75V11.95V12.45H16.25H23.875C24.406 12.45 24.8605 12.6637 25.2617 13.1451C25.6655 13.6296 25.875 14.2214 25.875 14.95V23.55H24.375V14.95V14.45H23.875H6.125H5.625V14.95V23.55H4.125V14.95C4.125 14.2214 4.33451 13.6296 4.73828 13.1451C5.13946 12.6637 5.59399 12.45 6.125 12.45H13.75H14.25V11.95V8.75V8.51701L14.0716 8.36715C13.5572 7.93509 13.1779 7.47537 12.9209 6.99075C12.6754 6.52775 12.5417 5.95364 12.5417 5.25C12.5417 4.8018 12.61 4.38132 12.7443 3.98574C12.8792 3.58835 13.0659 3.25195 13.3008 2.97009L13.3053 2.96462L13.3097 2.95902ZM24.375 24.55H25.875H26.375H27.5C28.031 24.55 28.4855 24.7637 28.8867 25.2451C29.2905 25.7296 29.5 26.3214 29.5 27.05V38C29.5 38.4665 29.3712 38.8236 29.1367 39.1049C28.9061 39.3816 28.6478 39.5 28.3333 39.5H1.66667C1.35221 39.5 1.09389 39.3816 0.863277 39.1049C0.628817 38.8236 0.5 38.4665 0.5 38V27.05C0.5 26.3214 0.709505 25.7296 1.11328 25.2451C1.51446 24.7637 1.96899 24.55 2.5 24.55H3.625H4.125H5.625H6.125H23.875H24.375ZM2 37V37.5H2.5H27.5H28V37V27.05V26.55H27.5H2.5H2V27.05V37Z" fill="white" stroke="black"/>
</svg>
