<svg width="28" height="16" viewBox="0 0 28 16" fill="none" xmlns="http://www.w3.org/2000/svg">
<path d="M15.7274 7.76001C15.7274 11.866 12.34 15.2 8.14371 15.2C3.94741 15.2 0.559998 11.866 0.559998 7.76001C0.559998 3.65404 3.94741 0.320007 8.14371 0.320007C12.34 0.320007 15.7274 3.65404 15.7274 7.76001ZM24.0357 7.76001C24.0357 11.6196 22.3337 14.7566 20.2439 14.7566C18.1542 14.7566 16.4521 11.6196 16.4521 7.76001C16.4521 3.90042 18.1542 0.763432 20.2439 0.763432C22.3337 0.763432 24.0357 3.88396 24.0357 7.76001ZM27.44 7.76001C27.44 11.2255 26.8502 14.0339 26.1086 14.0339C25.3671 14.0339 24.7773 11.2255 24.7773 7.76001C24.7773 4.2946 25.3671 1.48612 26.1086 1.48612C26.8502 1.48612 27.44 4.2946 27.44 7.76001Z" fill="white"/>
</svg>
