<svg width="48" height="48" viewBox="0 0 48 48" fill="none" xmlns="http://www.w3.org/2000/svg">
<path d="M25.7274 23.76C25.7274 27.866 22.34 31.2 18.1437 31.2C13.9474 31.2 10.56 27.866 10.56 23.76C10.56 19.654 13.9474 16.32 18.1437 16.32C22.34 16.32 25.7274 19.654 25.7274 23.76ZM34.0357 23.76C34.0357 27.6196 32.3337 30.7566 30.2439 30.7566C28.1542 30.7566 26.4521 27.6196 26.4521 23.76C26.4521 19.9004 28.1542 16.7634 30.2439 16.7634C32.3337 16.7634 34.0357 19.884 34.0357 23.76ZM37.44 23.76C37.44 27.2255 36.8502 30.0339 36.1086 30.0339C35.3671 30.0339 34.7773 27.2255 34.7773 23.76C34.7773 20.2946 35.3671 17.4861 36.1086 17.4861C36.8502 17.4861 37.44 20.2946 37.44 23.76Z" fill="#0C0C0C"/>
</svg>
