<svg width="50" height="50" viewBox="0 0 50 50" fill="none" xmlns="http://www.w3.org/2000/svg">
<path fill-rule="evenodd" clip-rule="evenodd" d="M21.4479 13.8128C19.3665 12.5119 16.6667 14.0083 16.6667 16.4628V33.5373C16.6667 35.9917 19.3665 37.4881 21.4479 36.1873L35.1075 27.65C37.0659 26.426 37.0659 23.574 35.1075 22.35L21.4479 13.8128ZM20.8334 31.6577V18.3422L31.4859 25L20.8334 31.6577Z" fill="black"/>
<path fill-rule="evenodd" clip-rule="evenodd" d="M25 2.08333C12.3435 2.08333 2.08331 12.3435 2.08331 25C2.08331 37.6565 12.3435 47.9167 25 47.9167C37.6564 47.9167 47.9166 37.6565 47.9166 25C47.9166 12.3435 37.6564 2.08333 25 2.08333ZM6.24998 25C6.24998 14.6447 14.6446 6.25 25 6.25C35.3554 6.25 43.75 14.6447 43.75 25C43.75 35.3554 35.3554 43.75 25 43.75C14.6446 43.75 6.24998 35.3554 6.24998 25Z" fill="black"/>
</svg>
