<svg width="20" height="16" viewBox="0 0 20 16" fill="none" xmlns="http://www.w3.org/2000/svg">
<path d="M0.5 1.5C0.5 1.22386 0.723862 1 1 1H19C19.2762 1 19.5 1.22386 19.5 1.5V2.5C19.5 2.77614 19.2762 3 19 3H1C0.723862 3 0.5 2.77614 0.5 2.5V1.5Z" fill="black" stroke="white"/>
<path d="M0.5 7.5C0.5 7.22385 0.723856 7 1 7H19C19.2762 7 19.5 7.22384 19.5 7.5V8.5C19.5 8.77616 19.2762 9 19 9H1C0.723856 9 0.5 8.77615 0.5 8.5V7.5Z" fill="black" stroke="white"/>
<path d="M0.5 13.5C0.5 13.2238 0.723856 13 1 13H19C19.2762 13 19.5 13.2238 19.5 13.5V14.5C19.5 14.7762 19.2762 15 19 15H1C0.723856 15 0.5 14.7762 0.5 14.5V13.5Z" fill="black" stroke="white"/>
</svg>
