<svg width="15" height="15" viewBox="0 0 15 15" fill="none" xmlns="http://www.w3.org/2000/svg">
<path fill-rule="evenodd" clip-rule="evenodd" d="M6.42858 0C2.87817 0 0 2.87817 0 6.42858C0 9.97901 2.87817 12.8572 6.42858 12.8572C7.94644 12.8572 9.34144 12.3311 10.4412 11.4514L13.7807 14.7908C14.0596 15.0697 14.5119 15.0697 14.7908 14.7908C15.0697 14.5119 15.0697 14.0596 14.7908 13.7807L11.4514 10.4412C12.3311 9.34144 12.8572 7.94644 12.8572 6.42858C12.8572 2.87817 9.97901 0 6.42858 0ZM1.42857 6.42858C1.42857 3.66715 3.66715 1.42857 6.42858 1.42857C9.19001 1.42857 11.4286 3.66715 11.4286 6.42858C11.4286 9.19001 9.19001 11.4286 6.42858 11.4286C3.66715 11.4286 1.42857 9.19001 1.42857 6.42858Z" fill="white"/>
</svg>
